<?xml version="1.0" encoding="UTF-8" standalone="no"?>
<!DOCTYPE svg PUBLIC "-//W3C//DTD SVG 1.1//EN" "http://www.w3.org/Graphics/SVG/1.1/DTD/svg11.dtd">
<svg width="100%" height="100%" viewBox="0 0 2181 635" version="1.1" xmlns="http://www.w3.org/2000/svg" xmlns:xlink="http://www.w3.org/1999/xlink" xml:space="preserve" xmlns:serif="http://www.serif.com/" style="fill-rule:evenodd;clip-rule:evenodd;stroke-linejoin:round;stroke-miterlimit:2;">
    <g id="Page-1" serif:id="Page 1" transform="matrix(3.662207,0,0,0.753819,0,0)">
        <rect x="0" y="0" width="595.28" height="841.89" style="fill:none;"/>
        <g id="Layer-1" serif:id="Layer 1" transform="matrix(1.137747,0,0,5.527411,-36.242314,-226.693505)">
            <g transform="matrix(1,0,0,1,155.5464,122.124)">
                <path d="M0,-9.441L0,17.284L7.546,17.284L7.546,17.173C9.131,17.074 11.101,15.797 13.456,13.344C16.058,10.668 17.358,7.484 17.358,3.791C17.358,0.149 16.063,-2.967 13.474,-5.557C10.885,-8.146 7.769,-9.441 4.126,-9.441L0,-9.441ZM0,-26.762L0,-17.358L5.018,-17.358C6.158,-17.457 7.137,-17.891 7.955,-18.659C8.847,-19.477 9.292,-20.579 9.292,-21.967C9.292,-23.355 8.828,-24.501 7.899,-25.406C6.97,-26.31 5.786,-26.762 4.349,-26.762L0,-26.762ZM4.349,-34.457C7.793,-34.457 10.742,-33.236 13.196,-30.795C15.649,-28.354 16.875,-25.412 16.875,-21.967C16.875,-18.423 15.091,-16.231 11.523,-15.388C14.1,-15.017 17.03,-13.183 20.313,-9.887C23.597,-6.591 25.239,-2.031 25.239,3.791C25.239,9.615 23.194,14.645 19.105,18.882C15.264,22.872 11.412,24.892 7.546,24.941L7.546,25.016L-7.694,25.016L-7.694,-34.457L4.349,-34.457Z" style="fill:rgb(35,31,32);fill-rule:nonzero;"/>
            </g>
            <g transform="matrix(1,0,0,1,218.2944,124.1682)">
                <path d="M0,5.65L0,-0C-0.446,-2.403 -1.636,-4.584 -3.568,-6.542C-6.17,-9.119 -9.293,-10.408 -12.936,-10.408C-16.603,-10.408 -19.732,-9.119 -22.321,-6.542C-24.911,-3.964 -26.205,-0.842 -26.205,2.825C-26.205,6.468 -24.911,9.584 -22.321,12.173C-19.732,14.763 -16.603,16.058 -12.936,16.058C-9.293,16.058 -6.17,14.77 -3.568,12.192C-1.636,10.235 -0.446,8.054 0,5.65M0,-12.6L0,-15.277L7.731,-15.277L7.731,23.008L0,23.008L0,18.213C-3.717,22.055 -8.029,23.975 -12.936,23.975C-18.784,23.975 -23.771,21.912 -27.896,17.786C-32.022,13.66 -34.085,8.673 -34.085,2.825C-34.085,-3.023 -32.022,-8.01 -27.896,-12.136C-23.771,-16.262 -18.784,-18.325 -12.936,-18.325C-8.029,-18.325 -3.717,-16.416 0,-12.6" style="fill:rgb(35,31,32);fill-rule:nonzero;"/>
            </g>
            <g transform="matrix(1,0,0,1,240.3403,141.007)">
                <path d="M0,-26.949C2.875,-30.839 6.406,-32.883 10.594,-33.082L10.594,-25.09C7.793,-24.942 5.563,-24.037 3.903,-22.377C1.4,-19.899 0.099,-16.95 0,-13.531L0,6.133L-7.694,6.133L-7.694,-32.116L0,-32.116L0,-26.949Z" style="fill:rgb(35,31,32);fill-rule:nonzero;"/>
            </g>
            <g transform="matrix(1,0,0,1,261.5317,111.8278)">
                <path d="M0,12.155L0,18.139C0.471,20.468 1.66,22.587 3.568,24.495C6.17,27.073 9.305,28.361 12.973,28.361C16.64,28.361 19.768,27.073 22.358,24.495C24.947,21.918 26.242,18.796 26.242,15.128C26.242,11.486 24.947,8.363 22.358,5.761C19.768,3.159 16.64,1.859 12.973,1.859C9.305,1.859 6.17,3.159 3.568,5.761C1.66,7.67 0.471,9.801 0,12.155M0,30.554L0,35.312L-7.694,35.312L-7.694,-24.16L0,-24.16L0,-0.297C3.717,-4.138 8.041,-6.058 12.973,-6.058C18.82,-6.058 23.808,-3.989 27.934,0.149C32.06,4.287 34.123,9.28 34.123,15.128C34.123,20.977 32.06,25.97 27.934,30.108C23.808,34.247 18.82,36.315 12.973,36.315C8.041,36.315 3.717,34.395 0,30.554" style="fill:rgb(35,31,32);fill-rule:nonzero;"/>
            </g>
            <g transform="matrix(1,0,0,1,334.4639,124.1682)">
                <path d="M0,5.65L0,-0C-0.445,-2.403 -1.635,-4.584 -3.568,-6.542C-6.17,-9.119 -9.292,-10.408 -12.935,-10.408C-16.603,-10.408 -19.731,-9.119 -22.32,-6.542C-24.91,-3.964 -26.205,-0.842 -26.205,2.825C-26.205,6.468 -24.91,9.584 -22.32,12.173C-19.731,14.763 -16.603,16.058 -12.935,16.058C-9.292,16.058 -6.17,14.77 -3.568,12.192C-1.635,10.235 -0.445,8.054 0,5.65M0,-12.6L0,-15.277L7.731,-15.277L7.731,23.008L0,23.008L0,18.213C-3.717,22.055 -8.028,23.975 -12.935,23.975C-18.783,23.975 -23.77,21.912 -27.896,17.786C-32.021,13.66 -34.085,8.673 -34.085,2.825C-34.085,-3.023 -32.021,-8.01 -27.896,-12.136C-23.77,-16.262 -18.783,-18.325 -12.935,-18.325C-8.028,-18.325 -3.717,-16.416 0,-12.6" style="fill:rgb(35,31,32);fill-rule:nonzero;"/>
            </g>
            <g transform="matrix(1,0,0,1,356.5479,134.7993)">
                <path d="M0,-15.649L0,12.34L-7.731,12.34L-7.731,-25.908L0,-25.908L0,-21.447C1.61,-25.809 4.845,-27.989 9.701,-27.989C13.84,-27.989 17.129,-26.521 19.57,-23.585C22.011,-20.648 23.269,-16.962 23.343,-12.526L23.343,12.34L15.648,12.34L15.648,-12.229C15.648,-14.434 14.844,-16.324 13.232,-17.898C11.622,-19.471 9.701,-20.258 7.472,-20.258C5.266,-20.258 3.357,-19.489 1.747,-17.953C0.855,-17.036 0.272,-16.268 0,-15.649" style="fill:rgb(35,31,32);fill-rule:nonzero;"/>
            </g>
            <g transform="matrix(1,0,0,1,411.3418,139.2228)">
                <path d="M0,-24.533C-0.868,-25.202 -2.813,-25.536 -5.836,-25.536C-9.479,-25.536 -12.595,-24.241 -15.185,-21.652C-17.774,-19.062 -19.068,-15.934 -19.068,-12.267C-19.068,-9.268 -18.734,-7.323 -18.064,-6.431L0,-24.533ZM-12.861,-0.744C-11.573,0.396 -9.231,0.966 -5.836,0.966C-2.169,0.966 0.966,-0.322 3.568,-2.9C3.89,-3.246 4.547,-4.015 5.538,-5.204L13.232,-2.454C11.349,0.148 9.985,1.871 9.144,2.713C5.005,6.852 0.012,8.92 -5.836,8.92C-11.659,8.92 -16.641,6.852 -20.778,2.713C-24.917,-1.425 -26.985,-6.418 -26.985,-12.267C-26.985,-18.115 -24.917,-23.108 -20.778,-27.246C-16.641,-31.384 -11.659,-33.453 -5.836,-33.453C-0.831,-33.453 3.556,-31.942 7.322,-28.919C7.941,-28.398 8.549,-27.841 9.144,-27.246C9.391,-26.998 10.098,-26.218 11.263,-24.905L7.396,-21.002L-12.861,-0.744Z" style="fill:rgb(35,31,32);fill-rule:nonzero;"/>
            </g>
            <g transform="matrix(1,0,0,1,462.082,141.8248)">
                <path d="M0,-17.842C-0.472,-20.196 -1.661,-22.327 -3.568,-24.236C-6.146,-26.838 -9.269,-28.138 -12.936,-28.138C-16.604,-28.138 -19.731,-26.838 -22.321,-24.236C-24.91,-21.634 -26.205,-18.511 -26.205,-14.869C-26.205,-11.201 -24.91,-8.072 -22.321,-5.483C-19.731,-2.893 -16.604,-1.599 -12.936,-1.599C-9.269,-1.599 -6.146,-2.887 -3.568,-5.465C-1.661,-7.372 -0.472,-9.479 0,-11.783L0,-17.842ZM0.037,-30.294L0.037,-32.933L7.769,-32.933L7.769,-4.498C7.769,2.936 5.748,8.672 1.71,12.712C-2.429,16.354 -7.422,18.176 -13.27,18.176C-19.118,18.176 -24.111,16.354 -28.249,12.712C-29.092,11.869 -30.442,10.159 -32.301,7.582L-24.644,4.831C-23.653,6.021 -22.984,6.789 -22.637,7.136C-20.035,9.713 -16.913,11.002 -13.27,11.002C-7.149,11.002 -2.912,6.988 -0.558,-1.041C-2.962,3.617 -7.088,5.947 -12.936,5.947C-18.784,5.947 -23.771,3.939 -27.896,-0.075C-32.022,-4.089 -34.085,-9.02 -34.085,-14.869C-34.085,-20.717 -32.022,-25.704 -27.896,-29.83C-23.771,-33.955 -18.784,-36.018 -12.936,-36.018C-8.005,-36.018 -3.68,-34.11 0.037,-30.294" style="fill:rgb(35,31,32);fill-rule:nonzero;"/>
            </g>
            <g transform="matrix(1,0,0,1,484.2764,141.007)">
                <path d="M0,-26.949C2.874,-30.839 6.405,-32.883 10.594,-33.082L10.594,-25.09C7.793,-24.942 5.563,-24.037 3.903,-22.377C1.399,-19.899 0.099,-16.95 0,-13.531L0,6.133L-7.694,6.133L-7.694,-32.116L0,-32.116L0,-26.949Z" style="fill:rgb(35,31,32);fill-rule:nonzero;"/>
            </g>
            <g transform="matrix(1,0,0,1,530.9297,124.1682)">
                <path d="M0,5.65L0,-0C-0.446,-2.403 -1.636,-4.584 -3.568,-6.542C-6.171,-9.119 -9.293,-10.408 -12.936,-10.408C-16.604,-10.408 -19.731,-9.119 -22.321,-6.542C-24.91,-3.964 -26.205,-0.842 -26.205,2.825C-26.205,6.468 -24.91,9.584 -22.321,12.173C-19.731,14.763 -16.604,16.058 -12.936,16.058C-9.293,16.058 -6.171,14.77 -3.568,12.192C-1.636,10.235 -0.446,8.054 0,5.65M0,-12.6L0,-15.277L7.731,-15.277L7.731,23.008L0,23.008L0,18.213C-3.717,22.055 -8.029,23.975 -12.936,23.975C-18.784,23.975 -23.771,21.912 -27.896,17.786C-32.022,13.66 -34.085,8.673 -34.085,2.825C-34.085,-3.023 -32.022,-8.01 -27.896,-12.136C-23.771,-16.262 -18.784,-18.325 -12.936,-18.325C-8.029,-18.325 -3.717,-16.416 0,-12.6" style="fill:rgb(35,31,32);fill-rule:nonzero;"/>
            </g>
            <g transform="matrix(1,0,0,1,103.6353,99.1577)">
                <path d="M0,37.785C0,37.369 0.314,36.8 0.829,36.135C0.854,36.23 0.873,36.325 0.899,36.417C1.794,39.651 2.689,42.887 3.583,46.121C4.519,49.498 4.859,54.509 6.948,57.324C5.355,56.601 0,40.099 0,37.785M-61.39,60.492C-58.863,64.998 -54.519,68.28 -49.791,70.36C-45.062,72.443 -39.93,73.424 -34.824,74.213C-29.718,75 -24.565,75.616 -19.592,77.022C-16.602,77.866 -13.548,79.097 -11.601,81.52C-10.848,82.456 -10.213,83.605 -9.091,84.041C-7.43,84.688 -5.578,83.36 -4.81,81.753C-3.488,78.988 -4.385,75.514 -6.435,73.235C-8.482,70.953 -11.475,69.719 -14.483,69.127C-17.492,68.538 -20.579,68.522 -23.633,68.271C-32.01,67.585 -40.221,65.073 -47.586,61.022C-42.589,61.995 -37.757,62.465 -36.183,62.389C-33.145,62.244 -13.46,62.679 -11.724,60.218C-9.987,57.758 -10.42,55.731 -10.854,54.863C-11.288,53.995 -13.75,51.969 -15.486,52.113C-17.223,52.257 -21.999,54.574 -24.171,54.863C-26.341,55.153 -27.644,53.849 -25.473,51.099C-23.302,48.349 -14.474,38.653 -14.184,36.192C-13.894,33.732 -5.789,50.81 -5.065,52.403C-4.341,53.995 -1.88,63.258 0.869,64.127C3.62,64.994 11.289,65.285 10.855,62.389C10.666,61.128 10.195,60.157 9.602,59.386C11.7,60.339 14.294,60.458 16.605,60.055C18.342,59.751 20.112,58.54 20.287,56.784C20.464,55.016 18.86,53.422 17.105,53.142C16.238,53.004 15.34,53.116 14.491,52.898C12.918,52.498 11.804,51.026 11.354,49.466C10.905,47.907 11,46.253 11.076,44.631C11.364,38.533 11.291,32.421 10.9,26.327C11.166,26.025 11.406,25.736 11.579,25.482C13.75,22.297 19.54,8.982 18.816,0.731C18.094,-7.517 14.763,-12.439 14.763,-16.636C14.763,-20.488 17.432,-26.533 15.523,-31.529C15.526,-31.533 15.531,-31.533 15.535,-31.54C16.363,-32.861 17.479,-39.176 16.983,-45.024C16.936,-45.563 16.858,-46.164 16.437,-46.506C15.944,-46.903 15.211,-46.753 14.636,-46.484C12.971,-45.7 11.817,-44.144 10.784,-42.62C9.838,-41.224 8.375,-39.752 7.416,-38.775C5.892,-39.038 4.131,-39.027 2.027,-38.78C0.875,-38.645 -1.774,-38.647 -4.506,-38.069C-5.1,-39.005 -7.669,-41.119 -9.107,-42.37C-10.677,-43.733 -12.487,-44.854 -14.443,-45.499C-15.2,-45.747 -15.412,-45.158 -15.454,-44.901C-16.24,-40.236 -15.603,-35.336 -13.64,-31.028C-13.397,-30.499 -12.986,-29.736 -12.616,-29.455C-12.854,-21.495 -10.407,-20.194 -9.987,-18.373C-9.552,-16.491 -10.565,-9.689 -13.46,-8.242C-16.356,-6.794 -28.658,-4.479 -31.841,-1.439C-35.026,1.601 -51.092,9.56 -56.736,25.337C-59.67,33.538 -61.652,40.783 -62.18,46.373C-64.318,50.757 -63.785,56.215 -61.39,60.492" style="fill:rgb(3,4,5);fill-rule:nonzero;"/>
            </g>
            <g transform="matrix(1,0,0,1,101.4268,82.9563)">
                <path d="M0,-4.122C0,-4.122 0.485,0 1.083,0C1.683,0 2.17,-4.122 2.17,-4.122L0,-4.122Z" style="fill:white;fill-rule:nonzero;"/>
            </g>
        </g>
    </g>
</svg>
